<svg xmlns="http://www.w3.org/2000/svg" viewBox="0 0 568.854 280.458"><path style="opacity:1;fill:#000;fill-opacity:1;stroke:#000;stroke-width:0;stroke-linecap:round;stroke-miterlimit:4;stroke-dasharray:none;stroke-opacity:.55392157;paint-order:markers fill stroke" d="M0 16.542h568.854V297H0z" transform="translate(0 -16.542)"/><path style="opacity:1;fill:#c2efff;fill-opacity:1;stroke:#000;stroke-width:0;stroke-linecap:round;stroke-miterlimit:4;stroke-dasharray:none;stroke-opacity:.55392157;paint-order:markers fill stroke" d="M-51.924 49.333h8.07v2.679h-8.07z" transform="translate(52.542 -1.954)"/><path transform="rotate(90 27.248 25.294)" style="opacity:1;fill:#c2efff;fill-opacity:1;stroke:#000;stroke-width:0;stroke-linecap:round;stroke-miterlimit:4;stroke-dasharray:none;stroke-opacity:.55392157;paint-order:markers fill stroke" d="M46.638 46.55h8.07v2.679h-8.07z"/><path style="opacity:1;fill:#fff;fill-opacity:1;stroke:#000;stroke-width:0;stroke-linecap:round;stroke-miterlimit:4;stroke-dasharray:none;stroke-opacity:.55392157;paint-order:markers fill stroke" d="M-49.229 49.322h2.687v2.671h-2.687z" transform="translate(52.542 -1.954)"/><path style="opacity:1;fill:#c2efff;fill-opacity:1;stroke:#000;stroke-width:0;stroke-linecap:round;stroke-miterlimit:4;stroke-dasharray:none;stroke-opacity:.55392157;paint-order:markers fill stroke" d="M-51.924 49.333h8.07v2.679h-8.07z" transform="translate(168.936 -28.958)"/><path transform="rotate(90 98.947 69.989)" style="opacity:1;fill:#c2efff;fill-opacity:1;stroke:#000;stroke-width:0;stroke-linecap:round;stroke-miterlimit:4;stroke-dasharray:none;stroke-opacity:.55392157;paint-order:markers fill stroke" d="M46.638 46.55h8.07v2.679h-8.07z"/><path style="opacity:1;fill:#fff;fill-opacity:1;stroke:#000;stroke-width:0;stroke-linecap:round;stroke-miterlimit:4;stroke-dasharray:none;stroke-opacity:.55392157;paint-order:markers fill stroke" d="M-49.229 49.322h2.687v2.671h-2.687z" transform="translate(168.936 -28.958)"/><path style="opacity:1;fill:#c2efff;fill-opacity:1;stroke:#000;stroke-width:0;stroke-linecap:round;stroke-miterlimit:4;stroke-dasharray:none;stroke-opacity:.55392157;paint-order:markers fill stroke" d="M-51.924 49.333h8.07v2.679h-8.07z" transform="translate(166.504 80.489)"/><path transform="rotate(90 43.008 123.496)" style="opacity:1;fill:#c2efff;fill-opacity:1;stroke:#000;stroke-width:0;stroke-linecap:round;stroke-miterlimit:4;stroke-dasharray:none;stroke-opacity:.55392157;paint-order:markers fill stroke" d="M46.638 46.55h8.07v2.679h-8.07z"/><path style="opacity:1;fill:#fff;fill-opacity:1;stroke:#000;stroke-width:0;stroke-linecap:round;stroke-miterlimit:4;stroke-dasharray:none;stroke-opacity:.55392157;paint-order:markers fill stroke" d="M-49.229 49.322h2.687v2.671h-2.687z" transform="translate(166.504 80.489)"/><path style="opacity:1;fill:#c2efff;fill-opacity:1;stroke:#000;stroke-width:0;stroke-linecap:round;stroke-miterlimit:4;stroke-dasharray:none;stroke-opacity:.55392157;paint-order:markers fill stroke" d="M-51.924 49.333h8.07v2.679h-8.07z" transform="translate(303.827 6.402)"/><path transform="rotate(90 148.713 155.114)" style="opacity:1;fill:#c2efff;fill-opacity:1;stroke:#000;stroke-width:0;stroke-linecap:round;stroke-miterlimit:4;stroke-dasharray:none;stroke-opacity:.55392157;paint-order:markers fill stroke" d="M46.638 46.55h8.07v2.679h-8.07z"/><path style="opacity:1;fill:#fff;fill-opacity:1;stroke:#000;stroke-width:0;stroke-linecap:round;stroke-miterlimit:4;stroke-dasharray:none;stroke-opacity:.55392157;paint-order:markers fill stroke" d="M-49.229 49.322h2.687v2.671h-2.687z" transform="translate(303.827 6.402)"/><path style="opacity:1;fill:#c2efff;fill-opacity:1;stroke:#000;stroke-width:0;stroke-linecap:round;stroke-miterlimit:4;stroke-dasharray:none;stroke-opacity:.55392157;paint-order:markers fill stroke" d="M-51.924 49.333h8.07v2.679h-8.07z" transform="translate(109.255 171.414)"/><path transform="rotate(90 -31.08 140.334)" style="opacity:1;fill:#c2efff;fill-opacity:1;stroke:#000;stroke-width:0;stroke-linecap:round;stroke-miterlimit:4;stroke-dasharray:none;stroke-opacity:.55392157;paint-order:markers fill stroke" d="M46.638 46.55h8.07v2.679h-8.07z"/><path style="opacity:1;fill:#fff;fill-opacity:1;stroke:#000;stroke-width:0;stroke-linecap:round;stroke-miterlimit:4;stroke-dasharray:none;stroke-opacity:.55392157;paint-order:markers fill stroke" d="M-49.229 49.322h2.687v2.671h-2.687z" transform="translate(109.255 171.414)"/><path style="opacity:1;fill:#c2efff;fill-opacity:1;stroke:#000;stroke-width:0;stroke-linecap:round;stroke-miterlimit:4;stroke-dasharray:none;stroke-opacity:.55392157;paint-order:markers fill stroke" d="M-51.924 49.333h8.07v2.679h-8.07z" transform="translate(284.956 112.31)"/><path transform="rotate(90 86.323 198.633)" style="opacity:1;fill:#c2efff;fill-opacity:1;stroke:#000;stroke-width:0;stroke-linecap:round;stroke-miterlimit:4;stroke-dasharray:none;stroke-opacity:.55392157;paint-order:markers fill stroke" d="M46.638 46.55h8.07v2.679h-8.07z"/><path style="opacity:1;fill:#fff;fill-opacity:1;stroke:#000;stroke-width:0;stroke-linecap:round;stroke-miterlimit:4;stroke-dasharray:none;stroke-opacity:.55392157;paint-order:markers fill stroke" d="M-49.229 49.322h2.687v2.671h-2.687z" transform="translate(284.956 112.31)"/><path style="opacity:1;fill:#c2efff;fill-opacity:1;stroke:#000;stroke-width:0;stroke-linecap:round;stroke-miterlimit:4;stroke-dasharray:none;stroke-opacity:.55392157;paint-order:markers fill stroke" d="M-51.924 49.333h8.07v2.679h-8.07z" transform="translate(554.831 6.477)"/><path transform="rotate(90 274.177 280.654)" style="opacity:1;fill:#c2efff;fill-opacity:1;stroke:#000;stroke-width:0;stroke-linecap:round;stroke-miterlimit:4;stroke-dasharray:none;stroke-opacity:.55392157;paint-order:markers fill stroke" d="M46.638 46.55h8.07v2.679h-8.07z"/><path style="opacity:1;fill:#fff;fill-opacity:1;stroke:#000;stroke-width:0;stroke-linecap:round;stroke-miterlimit:4;stroke-dasharray:none;stroke-opacity:.55392157;paint-order:markers fill stroke" d="M-49.229 49.322h2.687v2.671h-2.687z" transform="translate(554.831 6.477)"/><path style="opacity:1;fill:#c2efff;fill-opacity:1;stroke:#000;stroke-width:0;stroke-linecap:round;stroke-miterlimit:4;stroke-dasharray:none;stroke-opacity:.55392157;paint-order:markers fill stroke" d="M-51.924 49.333h8.07v2.679h-8.07z" transform="translate(453.231 -11.515)"/><path transform="rotate(90 232.373 220.858)" style="opacity:1;fill:#c2efff;fill-opacity:1;stroke:#000;stroke-width:0;stroke-linecap:round;stroke-miterlimit:4;stroke-dasharray:none;stroke-opacity:.55392157;paint-order:markers fill stroke" d="M46.638 46.55h8.07v2.679h-8.07z"/><path style="opacity:1;fill:#fff;fill-opacity:1;stroke:#000;stroke-width:0;stroke-linecap:round;stroke-miterlimit:4;stroke-dasharray:none;stroke-opacity:.55392157;paint-order:markers fill stroke" d="M-49.229 49.322h2.687v2.671h-2.687z" transform="translate(453.231 -11.515)"/><path style="opacity:1;fill:#c2efff;fill-opacity:1;stroke:#000;stroke-width:0;stroke-linecap:round;stroke-miterlimit:4;stroke-dasharray:none;stroke-opacity:.55392157;paint-order:markers fill stroke" d="M-51.924 49.333h8.07v2.679h-8.07z" transform="translate(532.606 194.86)"/><path transform="rotate(90 168.873 363.733)" style="opacity:1;fill:#c2efff;fill-opacity:1;stroke:#000;stroke-width:0;stroke-linecap:round;stroke-miterlimit:4;stroke-dasharray:none;stroke-opacity:.55392157;paint-order:markers fill stroke" d="M46.638 46.55h8.07v2.679h-8.07z"/><path style="opacity:1;fill:#fff;fill-opacity:1;stroke:#000;stroke-width:0;stroke-linecap:round;stroke-miterlimit:4;stroke-dasharray:none;stroke-opacity:.55392157;paint-order:markers fill stroke" d="M-49.229 49.322h2.687v2.671h-2.687z" transform="translate(532.606 194.86)"/><path style="opacity:1;fill:#c2efff;fill-opacity:1;stroke:#000;stroke-width:0;stroke-linecap:round;stroke-miterlimit:4;stroke-dasharray:none;stroke-opacity:.55392157;paint-order:markers fill stroke" d="M-51.924 49.333h8.07v2.679h-8.07z" transform="translate(574.94 108.077)"/><path transform="rotate(90 233.431 341.508)" style="opacity:1;fill:#c2efff;fill-opacity:1;stroke:#000;stroke-width:0;stroke-linecap:round;stroke-miterlimit:4;stroke-dasharray:none;stroke-opacity:.55392157;paint-order:markers fill stroke" d="M46.638 46.55h8.07v2.679h-8.07z"/><path style="opacity:1;fill:#fff;fill-opacity:1;stroke:#000;stroke-width:0;stroke-linecap:round;stroke-miterlimit:4;stroke-dasharray:none;stroke-opacity:.55392157;paint-order:markers fill stroke" d="M-49.229 49.322h2.687v2.671h-2.687z" transform="translate(574.94 108.077)"/><path style="opacity:1;fill:#c2efff;fill-opacity:1;stroke:#000;stroke-width:0;stroke-linecap:round;stroke-miterlimit:4;stroke-dasharray:none;stroke-opacity:.55392157;paint-order:markers fill stroke" d="M-51.924 49.333h8.07v2.679h-8.07z" transform="translate(220.398 189.569)"/><path transform="rotate(90 15.415 204.983)" style="opacity:1;fill:#c2efff;fill-opacity:1;stroke:#000;stroke-width:0;stroke-linecap:round;stroke-miterlimit:4;stroke-dasharray:none;stroke-opacity:.55392157;paint-order:markers fill stroke" d="M46.638 46.55h8.07v2.679h-8.07z"/><path style="opacity:1;fill:#fff;fill-opacity:1;stroke:#000;stroke-width:0;stroke-linecap:round;stroke-miterlimit:4;stroke-dasharray:none;stroke-opacity:.55392157;paint-order:markers fill stroke" d="M-49.229 49.322h2.687v2.671h-2.687z" transform="translate(220.398 189.569)"/><path style="opacity:1;fill:#c2efff;fill-opacity:1;stroke:#000;stroke-width:0;stroke-linecap:round;stroke-miterlimit:4;stroke-dasharray:none;stroke-opacity:.55392157;paint-order:markers fill stroke" d="M-51.924 49.333h8.07v2.679h-8.07z" transform="translate(421.481 129.244)"/><path transform="rotate(90 146.119 275.363)" style="opacity:1;fill:#c2efff;fill-opacity:1;stroke:#000;stroke-width:0;stroke-linecap:round;stroke-miterlimit:4;stroke-dasharray:none;stroke-opacity:.55392157;paint-order:markers fill stroke" d="M46.638 46.55h8.07v2.679h-8.07z"/><path style="opacity:1;fill:#fff;fill-opacity:1;stroke:#000;stroke-width:0;stroke-linecap:round;stroke-miterlimit:4;stroke-dasharray:none;stroke-opacity:.55392157;paint-order:markers fill stroke" d="M-49.229 49.322h2.687v2.671h-2.687z" transform="translate(421.481 129.244)"/><path style="opacity:1;fill:#c2efff;fill-opacity:1;stroke:#000;stroke-width:0;stroke-linecap:round;stroke-miterlimit:4;stroke-dasharray:none;stroke-opacity:.55392157;paint-order:markers fill stroke" d="M-51.924 49.333h8.07v2.679h-8.07z" transform="translate(339.99 183.219)"/><path transform="rotate(90 78.385 261.604)" style="opacity:1;fill:#c2efff;fill-opacity:1;stroke:#000;stroke-width:0;stroke-linecap:round;stroke-miterlimit:4;stroke-dasharray:none;stroke-opacity:.55392157;paint-order:markers fill stroke" d="M46.638 46.55h8.07v2.679h-8.07z"/><path style="opacity:1;fill:#fff;fill-opacity:1;stroke:#000;stroke-width:0;stroke-linecap:round;stroke-miterlimit:4;stroke-dasharray:none;stroke-opacity:.55392157;paint-order:markers fill stroke" d="M-49.229 49.322h2.687v2.671h-2.687z" transform="translate(339.99 183.219)"/><path transform="rotate(90 93.74 142.533)" style="opacity:1;fill:#c2efff;fill-opacity:1;stroke:#000;stroke-width:0;stroke-linecap:round;stroke-miterlimit:4;stroke-dasharray:none;stroke-opacity:.55392157;paint-order:markers fill stroke" d="M45.795 30.675h16.14v2.679h-16.14z"/><path style="opacity:1;fill:#c2efff;fill-opacity:1;stroke:#000;stroke-width:0;stroke-linecap:round;stroke-miterlimit:4;stroke-dasharray:none;stroke-opacity:.55392157;paint-order:markers fill stroke" d="M-40.084 52.525h16.14v2.679h-16.14z" transform="translate(236.273 48.794)"/><path style="opacity:1;fill:#fff;fill-opacity:1;stroke:#000;stroke-width:0;stroke-linecap:round;stroke-miterlimit:4;stroke-dasharray:none;stroke-opacity:.55392157;paint-order:markers fill stroke" d="M-33.354 52.529h2.687V55.2h-2.687z" transform="translate(236.273 48.794)"/><path transform="rotate(90 191.106 165.817)" style="opacity:1;fill:#c2efff;fill-opacity:1;stroke:#000;stroke-width:0;stroke-linecap:round;stroke-miterlimit:4;stroke-dasharray:none;stroke-opacity:.55392157;paint-order:markers fill stroke" d="M45.795 30.675h16.14v2.679h-16.14z"/><path style="opacity:1;fill:#c2efff;fill-opacity:1;stroke:#000;stroke-width:0;stroke-linecap:round;stroke-miterlimit:4;stroke-dasharray:none;stroke-opacity:.55392157;paint-order:markers fill stroke" d="M-40.084 52.525h16.14v2.679h-16.14z" transform="translate(356.923 -25.29)"/><path style="opacity:1;fill:#fff;fill-opacity:1;stroke:#000;stroke-width:0;stroke-linecap:round;stroke-miterlimit:4;stroke-dasharray:none;stroke-opacity:.55392157;paint-order:markers fill stroke" d="M-33.354 52.529h2.687V55.2h-2.687z" transform="translate(356.923 -25.29)"/><path transform="rotate(90 118.61 213.97)" style="opacity:1;fill:#c2efff;fill-opacity:1;stroke:#000;stroke-width:0;stroke-linecap:round;stroke-miterlimit:4;stroke-dasharray:none;stroke-opacity:.55392157;paint-order:markers fill stroke" d="M45.795 30.675h16.14v2.679h-16.14z"/><path style="opacity:1;fill:#c2efff;fill-opacity:1;stroke:#000;stroke-width:0;stroke-linecap:round;stroke-miterlimit:4;stroke-dasharray:none;stroke-opacity:.55392157;paint-order:markers fill stroke" d="M-40.084 52.525h16.14v2.679h-16.14z" transform="translate(332.581 95.36)"/><path style="opacity:1;fill:#fff;fill-opacity:1;stroke:#000;stroke-width:0;stroke-linecap:round;stroke-miterlimit:4;stroke-dasharray:none;stroke-opacity:.55392157;paint-order:markers fill stroke" d="M-33.354 52.529h2.687V55.2h-2.687z" transform="translate(332.581 95.36)"/><path transform="rotate(90 130.252 329.33)" style="opacity:1;fill:#c2efff;fill-opacity:1;stroke:#000;stroke-width:0;stroke-linecap:round;stroke-miterlimit:4;stroke-dasharray:none;stroke-opacity:.55392157;paint-order:markers fill stroke" d="M45.795 30.675h16.14v2.679h-16.14z"/><path style="opacity:1;fill:#c2efff;fill-opacity:1;stroke:#000;stroke-width:0;stroke-linecap:round;stroke-miterlimit:4;stroke-dasharray:none;stroke-opacity:.55392157;paint-order:markers fill stroke" d="M-40.084 52.525h16.14v2.679h-16.14z" transform="translate(459.581 199.077)"/><path style="opacity:1;fill:#fff;fill-opacity:1;stroke:#000;stroke-width:0;stroke-linecap:round;stroke-miterlimit:4;stroke-dasharray:none;stroke-opacity:.55392157;paint-order:markers fill stroke" d="M-33.354 52.529h2.687V55.2h-2.687z" transform="translate(459.581 199.077)"/><path transform="rotate(90 224.444 275.354)" style="opacity:1;fill:#c2efff;fill-opacity:1;stroke:#000;stroke-width:0;stroke-linecap:round;stroke-miterlimit:4;stroke-dasharray:none;stroke-opacity:.55392157;paint-order:markers fill stroke" d="M45.795 30.675h16.14v2.679h-16.14z"/><path style="opacity:1;fill:#c2efff;fill-opacity:1;stroke:#000;stroke-width:0;stroke-linecap:round;stroke-miterlimit:4;stroke-dasharray:none;stroke-opacity:.55392157;paint-order:markers fill stroke" d="M-40.084 52.525h16.14v2.679h-16.14z" transform="translate(499.798 50.91)"/><path style="opacity:1;fill:#fff;fill-opacity:1;stroke:#000;stroke-width:0;stroke-linecap:round;stroke-miterlimit:4;stroke-dasharray:none;stroke-opacity:.55392157;paint-order:markers fill stroke" d="M-33.354 52.529h2.687V55.2h-2.687z" transform="translate(499.798 50.91)"/><path transform="rotate(90 -14.21 77.975)" style="opacity:1;fill:#c2efff;fill-opacity:1;stroke:#000;stroke-width:0;stroke-linecap:round;stroke-miterlimit:4;stroke-dasharray:none;stroke-opacity:.55392157;paint-order:markers fill stroke" d="M45.795 30.675h16.14v2.679h-16.14z"/><path style="opacity:1;fill:#c2efff;fill-opacity:1;stroke:#000;stroke-width:0;stroke-linecap:round;stroke-miterlimit:4;stroke-dasharray:none;stroke-opacity:.55392157;paint-order:markers fill stroke" d="M-40.084 52.525h16.14v2.679h-16.14z" transform="translate(63.765 92.185)"/><path style="opacity:1;fill:#fff;fill-opacity:1;stroke:#000;stroke-width:0;stroke-linecap:round;stroke-miterlimit:4;stroke-dasharray:none;stroke-opacity:.55392157;paint-order:markers fill stroke" d="M-33.354 52.529h2.687V55.2h-2.687z" transform="translate(63.765 92.185)"/><path transform="rotate(90 55.64 35.642)" style="opacity:1;fill:#c2efff;fill-opacity:1;stroke:#000;stroke-width:0;stroke-linecap:round;stroke-miterlimit:4;stroke-dasharray:none;stroke-opacity:.55392157;paint-order:markers fill stroke" d="M45.795 30.675h16.14v2.679h-16.14z"/><path style="opacity:1;fill:#c2efff;fill-opacity:1;stroke:#000;stroke-width:0;stroke-linecap:round;stroke-miterlimit:4;stroke-dasharray:none;stroke-opacity:.55392157;paint-order:markers fill stroke" d="M-40.084 52.525h16.14v2.679h-16.14z" transform="translate(91.281 -19.998)"/><path style="opacity:1;fill:#fff;fill-opacity:1;stroke:#000;stroke-width:0;stroke-linecap:round;stroke-miterlimit:4;stroke-dasharray:none;stroke-opacity:.55392157;paint-order:markers fill stroke" d="M-33.354 52.529h2.687V55.2h-2.687z" transform="translate(91.281 -19.998)"/><path transform="rotate(90 -69.773 128.246)" style="opacity:1;fill:#c2efff;fill-opacity:1;stroke:#000;stroke-width:0;stroke-linecap:round;stroke-miterlimit:4;stroke-dasharray:none;stroke-opacity:.55392157;paint-order:markers fill stroke" d="M45.795 30.675h16.14v2.679h-16.14z"/><path style="opacity:1;fill:#c2efff;fill-opacity:1;stroke:#000;stroke-width:0;stroke-linecap:round;stroke-miterlimit:4;stroke-dasharray:none;stroke-opacity:.55392157;paint-order:markers fill stroke" d="M-40.084 52.525h16.14v2.679h-16.14z" transform="translate(58.473 198.019)"/><path style="opacity:1;fill:#fff;fill-opacity:1;stroke:#000;stroke-width:0;stroke-linecap:round;stroke-miterlimit:4;stroke-dasharray:none;stroke-opacity:.55392157;paint-order:markers fill stroke" d="M-33.354 52.529h2.687V55.2h-2.687z" transform="translate(58.473 198.019)"/><path style="opacity:1;fill:#fff;fill-opacity:1;stroke:#000;stroke-width:0;stroke-linecap:round;stroke-miterlimit:4;stroke-dasharray:none;stroke-opacity:.55392157;paint-order:markers fill stroke" d="M38.873 92.465h2.687v2.671h-2.687zM138.356 56.481h2.687v2.671h-2.687zM85.44 88.231h2.687v2.671H85.44zM72.74 145.381h2.687v2.671H72.74zM17.706 223.698h2.687v2.671h-2.687zM11.356 126.331h2.687v2.671h-2.687zM68.506 261.798h2.687v2.671h-2.687zM104.49 191.948h2.687v2.671h-2.687zM117.19 261.798h2.687v2.671h-2.687zM220.906 261.798h2.687v2.671h-2.687zM180.69 200.415h2.687v2.671h-2.687zM178.573 50.131h2.687v2.671h-2.687zM529.94 219.465h2.687v2.671h-2.687zM525.706 122.098h2.687v2.671h-2.687zM485.49 170.781h2.687v2.671h-2.687zM483.373 223.698h2.687v2.671h-2.687zM542.64 33.198h2.687v2.671h-2.687zM479.14 52.248h2.687v2.671h-2.687zM411.406 115.748h2.687v2.671h-2.687zM426.223 208.881h2.687v2.671h-2.687zM345.79 111.515h2.687v2.671h-2.687zM280.173 92.465h2.687v2.671h-2.687zM252.656 136.915h2.687v2.671h-2.687zM220.906 69.181h2.687v2.671h-2.687zM269.59 39.548h2.687v2.671h-2.687zM148.94 94.581h2.687v2.671h-2.687z" transform="translate(0 -16.542)"/><path transform="rotate(90 121.777 281.845)" style="opacity:1;fill:#c2efff;fill-opacity:1;stroke:#000;stroke-width:0;stroke-linecap:round;stroke-miterlimit:4;stroke-dasharray:none;stroke-opacity:.55392157;paint-order:markers fill stroke" d="M60.462 48.799h16.14v2.679h-16.14z"/><path style="opacity:1;fill:#c2efff;fill-opacity:1;stroke:#000;stroke-width:0;stroke-linecap:round;stroke-miterlimit:4;stroke-dasharray:none;stroke-opacity:.55392157;paint-order:markers fill stroke" d="M-58.208 67.193h16.14v2.679h-16.14z" transform="translate(403.622 160.068)"/><path style="opacity:1;fill:#c2efff;fill-opacity:1;stroke:#000;stroke-width:0;stroke-linecap:round;stroke-miterlimit:4;stroke-dasharray:none;stroke-opacity:.55392157;paint-order:markers fill stroke" d="M-54.173 64.497h8.07v8.07h-8.07z" transform="translate(403.622 160.068)"/><path style="opacity:1;fill:#fff;fill-opacity:1;stroke:#000;stroke-width:0;stroke-linecap:round;stroke-miterlimit:4;stroke-dasharray:none;stroke-opacity:.55392157;paint-order:markers fill stroke" d="M-51.478 67.197h2.687v2.671h-2.687z" transform="translate(403.622 160.068)"/><path transform="rotate(90 214.381 204.057)" style="opacity:1;fill:#c2efff;fill-opacity:1;stroke:#000;stroke-width:0;stroke-linecap:round;stroke-miterlimit:4;stroke-dasharray:none;stroke-opacity:.55392157;paint-order:markers fill stroke" d="M60.462 48.799h16.14v2.679h-16.14z"/><path style="opacity:1;fill:#c2efff;fill-opacity:1;stroke:#000;stroke-width:0;stroke-linecap:round;stroke-miterlimit:4;stroke-dasharray:none;stroke-opacity:.55392157;paint-order:markers fill stroke" d="M-58.208 67.193h16.14v2.679h-16.14z" transform="translate(418.439 -10.324)"/><path style="opacity:1;fill:#c2efff;fill-opacity:1;stroke:#000;stroke-width:0;stroke-linecap:round;stroke-miterlimit:4;stroke-dasharray:none;stroke-opacity:.55392157;paint-order:markers fill stroke" d="M-54.173 64.497h8.07v8.07h-8.07z" transform="translate(418.439 -10.324)"/><path style="opacity:1;fill:#fff;fill-opacity:1;stroke:#000;stroke-width:0;stroke-linecap:round;stroke-miterlimit:4;stroke-dasharray:none;stroke-opacity:.55392157;paint-order:markers fill stroke" d="M-51.478 67.197h2.687v2.671h-2.687z" transform="translate(418.439 -10.324)"/><path transform="rotate(90 20.177 163.311)" style="opacity:1;fill:#c2efff;fill-opacity:1;stroke:#000;stroke-width:0;stroke-linecap:round;stroke-miterlimit:4;stroke-dasharray:none;stroke-opacity:.55392157;paint-order:markers fill stroke" d="M60.462 48.799h16.14v2.679h-16.14z"/><path style="opacity:1;fill:#c2efff;fill-opacity:1;stroke:#000;stroke-width:0;stroke-linecap:round;stroke-miterlimit:4;stroke-dasharray:none;stroke-opacity:.55392157;paint-order:markers fill stroke" d="M-58.208 67.193h16.14v2.679h-16.14z" transform="translate(183.489 143.134)"/><path style="opacity:1;fill:#c2efff;fill-opacity:1;stroke:#000;stroke-width:0;stroke-linecap:round;stroke-miterlimit:4;stroke-dasharray:none;stroke-opacity:.55392157;paint-order:markers fill stroke" d="M-54.173 64.497h8.07v8.07h-8.07z" transform="translate(183.489 143.134)"/><path style="opacity:1;fill:#fff;fill-opacity:1;stroke:#000;stroke-width:0;stroke-linecap:round;stroke-miterlimit:4;stroke-dasharray:none;stroke-opacity:.55392157;paint-order:markers fill stroke" d="M-51.478 67.197h2.687v2.671h-2.687z" transform="translate(183.489 143.134)"/><g><path transform="rotate(90 79.973 85.524)" style="opacity:1;fill:#c2efff;fill-opacity:1;stroke:#000;stroke-width:0;stroke-linecap:round;stroke-miterlimit:4;stroke-dasharray:none;stroke-opacity:.55392157;paint-order:markers fill stroke" d="M60.462 48.799h16.14v2.679h-16.14z"/><path style="opacity:1;fill:#c2efff;fill-opacity:1;stroke:#000;stroke-width:0;stroke-linecap:round;stroke-miterlimit:4;stroke-dasharray:none;stroke-opacity:.55392157;paint-order:markers fill stroke" d="M-58.208 67.193h16.14v2.679h-16.14z" transform="translate(165.497 5.551)"/><path style="opacity:1;fill:#c2efff;fill-opacity:1;stroke:#000;stroke-width:0;stroke-linecap:round;stroke-miterlimit:4;stroke-dasharray:none;stroke-opacity:.55392157;paint-order:markers fill stroke" d="M-54.173 64.497h8.07v8.07h-8.07z" transform="translate(165.497 5.551)"/><path style="opacity:1;fill:#fff;fill-opacity:1;stroke:#000;stroke-width:0;stroke-linecap:round;stroke-miterlimit:4;stroke-dasharray:none;stroke-opacity:.55392157;paint-order:markers fill stroke" d="M-51.478 67.197h2.687v2.671h-2.687z" transform="translate(165.497 5.551)"/></g><g><path transform="rotate(90 -4.165 111.453)" style="opacity:1;fill:#c2efff;fill-opacity:1;stroke:#000;stroke-width:0;stroke-linecap:round;stroke-miterlimit:4;stroke-dasharray:none;stroke-opacity:.55392157;paint-order:markers fill stroke" d="M60.462 48.799h16.14v2.679h-16.14z"/><path style="opacity:1;fill:#c2efff;fill-opacity:1;stroke:#000;stroke-width:0;stroke-linecap:round;stroke-miterlimit:4;stroke-dasharray:none;stroke-opacity:.55392157;paint-order:markers fill stroke" d="M-58.208 67.193h16.14v2.679h-16.14z" transform="translate(107.289 115.618)"/><path style="opacity:1;fill:#c2efff;fill-opacity:1;stroke:#000;stroke-width:0;stroke-linecap:round;stroke-miterlimit:4;stroke-dasharray:none;stroke-opacity:.55392157;paint-order:markers fill stroke" d="M-54.173 64.497h8.07v8.07h-8.07z" transform="translate(107.289 115.618)"/><path style="opacity:1;fill:#fff;fill-opacity:1;stroke:#000;stroke-width:0;stroke-linecap:round;stroke-miterlimit:4;stroke-dasharray:none;stroke-opacity:.55392157;paint-order:markers fill stroke" d="M-51.478 67.197h2.687v2.671h-2.687z" transform="translate(107.289 115.618)"/></g><g><path transform="rotate(90 302.223 295.074)" style="opacity:1;fill:#c2efff;fill-opacity:1;stroke:#000;stroke-width:0;stroke-linecap:round;stroke-miterlimit:4;stroke-dasharray:none;stroke-opacity:.55392157;paint-order:markers fill stroke" d="M60.462 48.799h16.14v2.679h-16.14z"/><path style="opacity:1;fill:#c2efff;fill-opacity:1;stroke:#000;stroke-width:0;stroke-linecap:round;stroke-miterlimit:4;stroke-dasharray:none;stroke-opacity:.55392157;paint-order:markers fill stroke" d="M-58.208 67.193h16.14v2.679h-16.14z" transform="translate(597.297 -7.149)"/><path style="opacity:1;fill:#c2efff;fill-opacity:1;stroke:#000;stroke-width:0;stroke-linecap:round;stroke-miterlimit:4;stroke-dasharray:none;stroke-opacity:.55392157;paint-order:markers fill stroke" d="M-54.173 64.497h8.07v8.07h-8.07z" transform="translate(597.297 -7.149)"/><path style="opacity:1;fill:#fff;fill-opacity:1;stroke:#000;stroke-width:0;stroke-linecap:round;stroke-miterlimit:4;stroke-dasharray:none;stroke-opacity:.55392157;paint-order:markers fill stroke" d="M-51.478 67.197h2.687v2.671h-2.687z" transform="translate(597.297 -7.149)"/></g><g><path transform="rotate(90 188.452 242.686)" style="opacity:1;fill:#c2efff;fill-opacity:1;stroke:#000;stroke-width:0;stroke-linecap:round;stroke-miterlimit:4;stroke-dasharray:none;stroke-opacity:.55392157;paint-order:markers fill stroke" d="M60.462 48.799h16.14v2.679h-16.14z"/><path style="opacity:1;fill:#c2efff;fill-opacity:1;stroke:#000;stroke-width:0;stroke-linecap:round;stroke-miterlimit:4;stroke-dasharray:none;stroke-opacity:.55392157;paint-order:markers fill stroke" d="M-58.208 67.193h16.14v2.679h-16.14z" transform="translate(431.139 54.234)"/><path style="opacity:1;fill:#c2efff;fill-opacity:1;stroke:#000;stroke-width:0;stroke-linecap:round;stroke-miterlimit:4;stroke-dasharray:none;stroke-opacity:.55392157;paint-order:markers fill stroke" d="M-54.173 64.497h8.07v8.07h-8.07z" transform="translate(431.139 54.234)"/><path style="opacity:1;fill:#fff;fill-opacity:1;stroke:#000;stroke-width:0;stroke-linecap:round;stroke-miterlimit:4;stroke-dasharray:none;stroke-opacity:.55392157;paint-order:markers fill stroke" d="M-51.478 67.197h2.687v2.671h-2.687z" transform="translate(431.139 54.234)"/></g><g><path transform="rotate(90 76.269 211.995)" style="opacity:1;fill:#c2efff;fill-opacity:1;stroke:#000;stroke-width:0;stroke-linecap:round;stroke-miterlimit:4;stroke-dasharray:none;stroke-opacity:.55392157;paint-order:markers fill stroke" d="M60.462 48.799h16.14v2.679h-16.14z"/><path style="opacity:1;fill:#c2efff;fill-opacity:1;stroke:#000;stroke-width:0;stroke-linecap:round;stroke-miterlimit:4;stroke-dasharray:none;stroke-opacity:.55392157;paint-order:markers fill stroke" d="M-58.208 67.193h16.14v2.679h-16.14z" transform="translate(288.264 135.726)"/><path style="opacity:1;fill:#c2efff;fill-opacity:1;stroke:#000;stroke-width:0;stroke-linecap:round;stroke-miterlimit:4;stroke-dasharray:none;stroke-opacity:.55392157;paint-order:markers fill stroke" d="M-54.173 64.497h8.07v8.07h-8.07z" transform="translate(288.264 135.726)"/><path style="opacity:1;fill:#fff;fill-opacity:1;stroke:#000;stroke-width:0;stroke-linecap:round;stroke-miterlimit:4;stroke-dasharray:none;stroke-opacity:.55392157;paint-order:markers fill stroke" d="M-51.478 67.197h2.687v2.671h-2.687z" transform="translate(288.264 135.726)"/></g><g><path style="opacity:1;fill:#c2efff;fill-opacity:1;stroke:#000;stroke-width:0;stroke-linecap:round;stroke-miterlimit:4;stroke-dasharray:none;stroke-opacity:.55392157;paint-order:markers fill stroke" d="M-51.924 49.333h8.07v2.679h-8.07z" transform="translate(207.29 97.327)"/><path transform="rotate(90 54.981 152.308)" style="opacity:1;fill:#c2efff;fill-opacity:1;stroke:#000;stroke-width:0;stroke-linecap:round;stroke-miterlimit:4;stroke-dasharray:none;stroke-opacity:.55392157;paint-order:markers fill stroke" d="M46.638 46.55h8.07v2.679h-8.07z"/><path style="opacity:1;fill:#fff;fill-opacity:1;stroke:#000;stroke-width:0;stroke-linecap:round;stroke-miterlimit:4;stroke-dasharray:none;stroke-opacity:.55392157;paint-order:markers fill stroke" d="M-49.229 49.322h2.687v2.671h-2.687z" transform="translate(207.29 97.327)"/></g><path style="opacity:1;fill:#fff;fill-opacity:1;stroke:#000;stroke-width:0;stroke-linecap:round;stroke-miterlimit:4;stroke-dasharray:none;stroke-opacity:.55392157;paint-order:markers fill stroke" d="M309.972 212.597h2.687v2.671h-2.687zM37.13 64.723h1.323v1.323H37.13zM94.754 58.362h1.323v1.323h-1.323zM74.174 113.366h1.323v1.323h-1.323zM205.714 152.405h1.323v1.323h-1.323zM157.03 123.83h1.323v1.323h-1.323zM181.372 84.672h1.323v1.323h-1.323zM239.58 100.547h1.323v1.323h-1.323zM221.589 31.755h1.323v1.323h-1.323zM165.497 20.114h1.323v1.323h-1.323zM76.597 211.672h1.323v1.323h-1.323zM19.447 191.564h1.323v1.323h-1.323zM280.855 192.622h1.323v1.323h-1.323zM267.097 162.989h1.323v1.323h-1.323zM298.847 118.539h1.323v1.323h-1.323zM330.597 152.405h1.323v1.323h-1.323zM425.847 82.555h1.323v1.323h-1.323zM360.23 38.105h1.323v1.323h-1.323zM437.489 31.755h1.323v1.323h-1.323zM450.189 95.255h1.323v1.323h-1.323zM544.38 131.239h1.323v1.323h-1.323zM447.014 164.047h1.323v1.323h-1.323zM409.972 169.339h1.323v1.323h-1.323zM442.78 239.189h1.323v1.323h-1.323zM389.864 234.955h1.323v1.323h-1.323zM552.847 222.255h1.323v1.323h-1.323zM547.555 282.58h1.323v1.323h-1.323zM506.28 245.539h1.323v1.323h-1.323zM460.772 282.58h1.323v1.323h-1.323zM380.339 285.755h1.323v1.323h-1.323zM336.947 269.88h1.323v1.323h-1.323zM306.255 279.405h1.323v1.323h-1.323zM261.805 259.297h1.323v1.323h-1.323zM275.564 215.905h1.323v1.323h-1.323zM203.597 241.305h1.323v1.323h-1.323zM248.047 277.289h1.323v1.323h-1.323zM159.147 285.755h1.323v1.323h-1.323zM108.347 279.405h1.323v1.323h-1.323zM45.905 284.697h1.323v1.323h-1.323zM90.355 224.372h1.323v1.323h-1.323zM142.214 196.855h1.323v1.323h-1.323z" transform="translate(0 -16.542)"/><g><path transform="rotate(90 307.515 248.507)" style="opacity:1;fill:#c2efff;fill-opacity:1;stroke:#000;stroke-width:0;stroke-linecap:round;stroke-miterlimit:4;stroke-dasharray:none;stroke-opacity:.55392157;paint-order:markers fill stroke" d="M60.462 48.799h16.14v2.679h-16.14z"/><path style="opacity:1;fill:#c2efff;fill-opacity:1;stroke:#000;stroke-width:0;stroke-linecap:round;stroke-miterlimit:4;stroke-dasharray:none;stroke-opacity:.55392157;paint-order:markers fill stroke" d="M-58.208 67.193h16.14v2.679h-16.14z" transform="translate(556.022 -59.007)"/><path style="opacity:1;fill:#c2efff;fill-opacity:1;stroke:#000;stroke-width:0;stroke-linecap:round;stroke-miterlimit:4;stroke-dasharray:none;stroke-opacity:.55392157;paint-order:markers fill stroke" d="M-54.173 64.497h8.07v8.07h-8.07z" transform="translate(556.022 -59.007)"/><path style="opacity:1;fill:#fff;fill-opacity:1;stroke:#000;stroke-width:0;stroke-linecap:round;stroke-miterlimit:4;stroke-dasharray:none;stroke-opacity:.55392157;paint-order:markers fill stroke" d="M-51.478 67.197h2.687v2.671h-2.687z" transform="translate(556.022 -59.007)"/></g><g><path transform="rotate(90 10.848 222.848)" style="opacity:1;fill:#c2efff;fill-opacity:1;stroke:#000;stroke-width:0;stroke-linecap:round;stroke-miterlimit:4;stroke-dasharray:none;stroke-opacity:.55392157;paint-order:markers fill stroke" d="M45.795 30.675h16.14v2.679h-16.14z"/><path style="opacity:1;fill:#c2efff;fill-opacity:1;stroke:#000;stroke-width:0;stroke-linecap:round;stroke-miterlimit:4;stroke-dasharray:none;stroke-opacity:.55392157;paint-order:markers fill stroke" d="M-40.084 52.525h16.14v2.679h-16.14z" transform="translate(233.696 212)"/><path style="opacity:1;fill:#fff;fill-opacity:1;stroke:#000;stroke-width:0;stroke-linecap:round;stroke-miterlimit:4;stroke-dasharray:none;stroke-opacity:.55392157;paint-order:markers fill stroke" d="M-33.354 52.529h2.687V55.2h-2.687z" transform="translate(233.696 212)"/></g><g><path transform="rotate(90 187.402 374.308)" style="opacity:1;fill:#c2efff;fill-opacity:1;stroke:#000;stroke-width:0;stroke-linecap:round;stroke-miterlimit:4;stroke-dasharray:none;stroke-opacity:.55392157;paint-order:markers fill stroke" d="M45.795 30.675h16.14v2.679h-16.14z"/><path style="opacity:1;fill:#c2efff;fill-opacity:1;stroke:#000;stroke-width:0;stroke-linecap:round;stroke-miterlimit:4;stroke-dasharray:none;stroke-opacity:.55392157;paint-order:markers fill stroke" d="M-40.084 52.525h16.14v2.679h-16.14z" transform="translate(561.71 186.906)"/><path style="opacity:1;fill:#fff;fill-opacity:1;stroke:#000;stroke-width:0;stroke-linecap:round;stroke-miterlimit:4;stroke-dasharray:none;stroke-opacity:.55392157;paint-order:markers fill stroke" d="M-33.354 52.529h2.687V55.2h-2.687z" transform="translate(561.71 186.906)"/></g></svg>